<svg width="26" height="26" viewBox="0 0 26 26" fill="none" xmlns="http://www.w3.org/2000/svg">
<path d="M10.0417 13.1354C9.26541 13.1354 8.63541 13.7654 8.63541 14.5417C8.63541 15.3179 9.26541 15.9479 10.0417 15.9479C10.8179 15.9479 11.4479 15.3179 11.4479 14.5417C11.4479 13.7654 10.8179 13.1354 10.0417 13.1354ZM16.7917 13.1354C16.0154 13.1354 15.3854 13.7654 15.3854 14.5417C15.3854 15.3179 16.0154 15.9479 16.7917 15.9479C17.5679 15.9479 18.1979 15.3179 18.1979 14.5417C18.1979 13.7654 17.5679 13.1354 16.7917 13.1354ZM13.4167 2.16669C7.20666 2.16669 2.16666 7.20669 2.16666 13.4167C2.16666 19.6267 7.20666 24.6667 13.4167 24.6667C19.6267 24.6667 24.6667 19.6267 24.6667 13.4167C24.6667 7.20669 19.6267 2.16669 13.4167 2.16669ZM13.4167 22.4167C8.45541 22.4167 4.41666 18.3779 4.41666 13.4167C4.41666 13.0904 4.43916 12.7642 4.47291 12.4492C7.12791 11.2679 9.23166 9.09669 10.3342 6.40794C12.3704 9.28794 15.7229 11.1667 19.5142 11.1667C20.3917 11.1667 21.2354 11.0654 22.0454 10.8742C22.2817 11.6729 22.4167 12.5279 22.4167 13.4167C22.4167 18.3779 18.3779 22.4167 13.4167 22.4167Z" fill="white"/>
</svg>
