<svg width="27" height="26" viewBox="0 0 27 26" fill="none" xmlns="http://www.w3.org/2000/svg">
<path d="M10.125 13.1354C9.34875 13.1354 8.71875 13.7654 8.71875 14.5417C8.71875 15.3179 9.34875 15.9479 10.125 15.9479C10.9012 15.9479 11.5312 15.3179 11.5312 14.5417C11.5312 13.7654 10.9012 13.1354 10.125 13.1354ZM16.875 13.1354C16.0988 13.1354 15.4688 13.7654 15.4688 14.5417C15.4688 15.3179 16.0988 15.9479 16.875 15.9479C17.6512 15.9479 18.2812 15.3179 18.2812 14.5417C18.2812 13.7654 17.6512 13.1354 16.875 13.1354ZM13.5 2.16669C7.29 2.16669 2.25 7.20669 2.25 13.4167C2.25 19.6267 7.29 24.6667 13.5 24.6667C19.71 24.6667 24.75 19.6267 24.75 13.4167C24.75 7.20669 19.71 2.16669 13.5 2.16669ZM13.5 22.4167C8.53875 22.4167 4.5 18.3779 4.5 13.4167C4.5 13.0904 4.5225 12.7642 4.55625 12.4492C7.21125 11.2679 9.315 9.09669 10.4175 6.40794C12.4538 9.28794 15.8063 11.1667 19.5975 11.1667C20.475 11.1667 21.3188 11.0654 22.1287 10.8742C22.365 11.6729 22.5 12.5279 22.5 13.4167C22.5 18.3779 18.4613 22.4167 13.5 22.4167Z" fill="black"/>
</svg>
